<mxfile host="app.diagrams.net" agent="Mozilla/5.0 (Windows NT 10.0; Win64; x64) AppleWebKit/537.36 (KHTML, like Gecko) Chrome/132.0.0.0 YaBrowser/25.2.0.0 Safari/537.36" version="26.0.16">
  <diagram name="Страница — 1" id="uUdHPFXe82s1Ns-evCUG">
    <mxGraphModel dx="1687" dy="931" grid="1" gridSize="10" guides="1" tooltips="1" connect="1" arrows="1" fold="1" page="1" pageScale="1" pageWidth="827" pageHeight="1169" math="0" shadow="0">
      <root>
        <mxCell id="0" />
        <mxCell id="1" parent="0" />
        <mxCell id="XRV9YguSHLdoOT3q_Hpr-25" value="" style="edgeStyle=orthogonalEdgeStyle;rounded=0;orthogonalLoop=1;jettySize=auto;html=1;" edge="1" parent="1" source="XRV9YguSHLdoOT3q_Hpr-1" target="XRV9YguSHLdoOT3q_Hpr-2">
          <mxGeometry relative="1" as="geometry" />
        </mxCell>
        <mxCell id="XRV9YguSHLdoOT3q_Hpr-1" value="начало" style="ellipse;whiteSpace=wrap;html=1;" vertex="1" parent="1">
          <mxGeometry x="370" y="10" width="120" height="80" as="geometry" />
        </mxCell>
        <mxCell id="XRV9YguSHLdoOT3q_Hpr-26" value="" style="edgeStyle=orthogonalEdgeStyle;rounded=0;orthogonalLoop=1;jettySize=auto;html=1;" edge="1" parent="1" source="XRV9YguSHLdoOT3q_Hpr-2" target="XRV9YguSHLdoOT3q_Hpr-3">
          <mxGeometry relative="1" as="geometry" />
        </mxCell>
        <mxCell id="XRV9YguSHLdoOT3q_Hpr-2" value="ввод буквы,которую нужно удалить-lettertoRemove&lt;div&gt;ввод слова-word&lt;/div&gt;" style="shape=parallelogram;perimeter=parallelogramPerimeter;whiteSpace=wrap;html=1;fixedSize=1;" vertex="1" parent="1">
          <mxGeometry x="295" y="120" width="270" height="80" as="geometry" />
        </mxCell>
        <mxCell id="XRV9YguSHLdoOT3q_Hpr-32" value="" style="edgeStyle=orthogonalEdgeStyle;rounded=0;orthogonalLoop=1;jettySize=auto;html=1;" edge="1" parent="1" source="XRV9YguSHLdoOT3q_Hpr-3" target="XRV9YguSHLdoOT3q_Hpr-29">
          <mxGeometry relative="1" as="geometry" />
        </mxCell>
        <mxCell id="XRV9YguSHLdoOT3q_Hpr-3" value="word = &#39;Введенное слово пользователем&#39;&lt;br&gt;&lt;div&gt;&lt;span style=&quot;background-color: transparent; color: light-dark(rgb(0, 0, 0), rgb(255, 255, 255));&quot;&gt;lettertoRemove&amp;nbsp;&lt;/span&gt;= &#39;Введенная буква пользователем&#39;&lt;/div&gt;" style="rounded=0;whiteSpace=wrap;html=1;" vertex="1" parent="1">
          <mxGeometry x="300" y="230" width="260" height="90" as="geometry" />
        </mxCell>
        <mxCell id="XRV9YguSHLdoOT3q_Hpr-21" value="" style="edgeStyle=orthogonalEdgeStyle;rounded=0;orthogonalLoop=1;jettySize=auto;html=1;exitX=1;exitY=0.5;exitDx=0;exitDy=0;entryX=0.5;entryY=0;entryDx=0;entryDy=0;" edge="1" parent="1" source="XRV9YguSHLdoOT3q_Hpr-4" target="XRV9YguSHLdoOT3q_Hpr-22">
          <mxGeometry relative="1" as="geometry">
            <mxPoint x="730" y="810" as="targetPoint" />
            <Array as="points">
              <mxPoint x="730" y="490" />
            </Array>
          </mxGeometry>
        </mxCell>
        <mxCell id="XRV9YguSHLdoOT3q_Hpr-34" value="" style="edgeStyle=orthogonalEdgeStyle;rounded=0;orthogonalLoop=1;jettySize=auto;html=1;" edge="1" parent="1" source="XRV9YguSHLdoOT3q_Hpr-4" target="XRV9YguSHLdoOT3q_Hpr-5">
          <mxGeometry relative="1" as="geometry" />
        </mxCell>
        <mxCell id="XRV9YguSHLdoOT3q_Hpr-4" value="Выполнение цикла foreach letter in word" style="shape=hexagon;perimeter=hexagonPerimeter2;whiteSpace=wrap;html=1;fixedSize=1;" vertex="1" parent="1">
          <mxGeometry x="320" y="440" width="220" height="100" as="geometry" />
        </mxCell>
        <mxCell id="XRV9YguSHLdoOT3q_Hpr-8" value="" style="edgeStyle=orthogonalEdgeStyle;rounded=0;orthogonalLoop=1;jettySize=auto;html=1;" edge="1" parent="1" source="XRV9YguSHLdoOT3q_Hpr-5" target="XRV9YguSHLdoOT3q_Hpr-7">
          <mxGeometry relative="1" as="geometry">
            <Array as="points">
              <mxPoint x="200" y="640" />
            </Array>
          </mxGeometry>
        </mxCell>
        <mxCell id="XRV9YguSHLdoOT3q_Hpr-11" value="" style="edgeStyle=orthogonalEdgeStyle;rounded=0;orthogonalLoop=1;jettySize=auto;html=1;" edge="1" parent="1" source="XRV9YguSHLdoOT3q_Hpr-5" target="XRV9YguSHLdoOT3q_Hpr-10">
          <mxGeometry relative="1" as="geometry">
            <Array as="points">
              <mxPoint x="590" y="640" />
            </Array>
          </mxGeometry>
        </mxCell>
        <mxCell id="XRV9YguSHLdoOT3q_Hpr-5" value="if letter != lettertoRemove" style="rhombus;whiteSpace=wrap;html=1;" vertex="1" parent="1">
          <mxGeometry x="340" y="600" width="180" height="80" as="geometry" />
        </mxCell>
        <mxCell id="XRV9YguSHLdoOT3q_Hpr-19" value="" style="edgeStyle=orthogonalEdgeStyle;rounded=0;orthogonalLoop=1;jettySize=auto;html=1;" edge="1" parent="1" source="XRV9YguSHLdoOT3q_Hpr-7">
          <mxGeometry relative="1" as="geometry">
            <mxPoint x="200" y="810" as="targetPoint" />
          </mxGeometry>
        </mxCell>
        <mxCell id="XRV9YguSHLdoOT3q_Hpr-7" value="буква добавляется к result&amp;nbsp;" style="whiteSpace=wrap;html=1;" vertex="1" parent="1">
          <mxGeometry x="140" y="650" width="120" height="60" as="geometry" />
        </mxCell>
        <mxCell id="XRV9YguSHLdoOT3q_Hpr-9" value="Да" style="text;html=1;align=center;verticalAlign=middle;resizable=0;points=[];autosize=1;strokeColor=none;fillColor=none;" vertex="1" parent="1">
          <mxGeometry x="255" y="610" width="40" height="30" as="geometry" />
        </mxCell>
        <mxCell id="XRV9YguSHLdoOT3q_Hpr-17" value="" style="edgeStyle=orthogonalEdgeStyle;rounded=0;orthogonalLoop=1;jettySize=auto;html=1;entryX=0;entryY=0.5;entryDx=0;entryDy=0;" edge="1" parent="1" source="XRV9YguSHLdoOT3q_Hpr-10" target="XRV9YguSHLdoOT3q_Hpr-4">
          <mxGeometry relative="1" as="geometry">
            <Array as="points">
              <mxPoint x="590" y="810" />
              <mxPoint x="40" y="810" />
              <mxPoint x="40" y="480" />
              <mxPoint x="320" y="480" />
            </Array>
          </mxGeometry>
        </mxCell>
        <mxCell id="XRV9YguSHLdoOT3q_Hpr-10" value="буква удаляется" style="whiteSpace=wrap;html=1;" vertex="1" parent="1">
          <mxGeometry x="530" y="660" width="120" height="60" as="geometry" />
        </mxCell>
        <mxCell id="XRV9YguSHLdoOT3q_Hpr-13" value="Нет" style="text;html=1;align=center;verticalAlign=middle;resizable=0;points=[];autosize=1;strokeColor=none;fillColor=none;" vertex="1" parent="1">
          <mxGeometry x="530" y="610" width="40" height="30" as="geometry" />
        </mxCell>
        <mxCell id="XRV9YguSHLdoOT3q_Hpr-24" value="" style="edgeStyle=orthogonalEdgeStyle;rounded=0;orthogonalLoop=1;jettySize=auto;html=1;" edge="1" parent="1" source="XRV9YguSHLdoOT3q_Hpr-22" target="XRV9YguSHLdoOT3q_Hpr-23">
          <mxGeometry relative="1" as="geometry">
            <Array as="points">
              <mxPoint x="730" y="780" />
              <mxPoint x="730" y="780" />
            </Array>
          </mxGeometry>
        </mxCell>
        <mxCell id="XRV9YguSHLdoOT3q_Hpr-22" value="вывод result" style="shape=parallelogram;perimeter=parallelogramPerimeter;whiteSpace=wrap;html=1;fixedSize=1;" vertex="1" parent="1">
          <mxGeometry x="670" y="640" width="120" height="60" as="geometry" />
        </mxCell>
        <mxCell id="XRV9YguSHLdoOT3q_Hpr-23" value="Конец" style="ellipse;whiteSpace=wrap;html=1;" vertex="1" parent="1">
          <mxGeometry x="670" y="730" width="120" height="80" as="geometry" />
        </mxCell>
        <mxCell id="XRV9YguSHLdoOT3q_Hpr-33" value="" style="edgeStyle=orthogonalEdgeStyle;rounded=0;orthogonalLoop=1;jettySize=auto;html=1;" edge="1" parent="1" source="XRV9YguSHLdoOT3q_Hpr-29" target="XRV9YguSHLdoOT3q_Hpr-4">
          <mxGeometry relative="1" as="geometry" />
        </mxCell>
        <mxCell id="XRV9YguSHLdoOT3q_Hpr-29" value="Создаем&amp;nbsp; объект `StringBuilder` для хранения результата с именем result" style="whiteSpace=wrap;html=1;" vertex="1" parent="1">
          <mxGeometry x="315" y="350" width="230" height="60" as="geometry" />
        </mxCell>
      </root>
    </mxGraphModel>
  </diagram>
</mxfile>
